<svg enable-background="new 0 0 2500 2500" height="2500" viewBox="0 0 2500 2500" width="2500" xmlns="http://www.w3.org/2000/svg"><path d="m1283.806 1455.516-531.525 304.5 488.935 286.066 528.158-304.771z" fill="#fff"/><path d="m1241.216 2047.082c-.175 0-.349-.046-.505-.137l-488.935-286.067c-.308-.18-.497-.511-.495-.868s.193-.686.503-.863l531.525-304.5c.311-.179.694-.176 1.004.006l485.568 285.796c.307.18.494.51.493.866s-.192.684-.5.862l-528.158 304.771c-.155.09-.328.134-.5.134zm-486.939-287.057 486.942 284.901 526.169-303.623-483.589-284.631z"/><path d="m1764.689 1410.792-664.957 386.443 612.523 359.077 654.361-392.739z" fill="#fff"/><path d="m1712.255 2157.312c-.175 0-.35-.046-.506-.137l-612.523-359.077c-.307-.18-.495-.509-.494-.865.001-.355.19-.684.498-.863l664.958-386.443c.312-.181.697-.18 1.008.002l601.927 352.781c.304.178.492.504.494.857s-.183.681-.485.863l-654.361 392.739c-.16.095-.338.143-.516.143zm-610.54-360.073 610.533 357.911 652.407-391.566-599.968-351.633z"/><ellipse cx="1907.848" cy="1795.626" fill="#fff" rx="160.264" ry="124.65"/><path d="m1907.847 1921.276c-88.921 0-161.264-56.366-161.264-125.65s72.343-125.65 161.264-125.65 161.264 56.366 161.264 125.65-72.342 125.65-161.264 125.65zm0-249.3c-87.818 0-159.264 55.469-159.264 123.65s71.446 123.65 159.264 123.65 159.264-55.469 159.264-123.65-71.445-123.65-159.264-123.65z"/><path d="m1369.428 1695.249c-63.884 93.766 60.647 142.333 83.439 142.457 52.324.286 162.808-37.649 171.966-5.088 10.176 33.579-40.094 43.398-38.159 69.98 1.468 20.171 37.141 63.319 152.124 42.968 143.995-25.486 42.737-97.685 71.722-117.018 29.978-19.996 150.104 35.614 164.35-14.246 10.905-38.166-126.176-62.071-126.176-92.684 0-37.782 141.536-32.927 105.825-104.989-21.592-43.572-114.18-76.585-162.808-76.717-96.666-.261-359.195 62.74-422.283 155.337z" fill="#adc4cb"/><path d="m1683.333 1951.888c-11.25 0-21.764-.785-31.496-2.357-19.926-3.219-36.122-9.594-48.138-18.948-10.614-8.263-17.351-18.697-18.022-27.912-.905-12.43 8.816-21.042 19.108-30.16 12.051-10.676 24.511-21.716 19.091-39.603-5.74-20.412-54.698-11.652-102.042-3.18-26.089 4.668-50.732 9.095-68.973 8.978-16.084-.088-73.597-21.309-94.613-61.322-13.285-25.293-9.801-53.117 10.354-82.699l.826.563-.826-.563c37.418-54.921 140.786-94.297 199.072-112.88 79.656-25.396 171.766-43.067 224.041-42.894 49.397.133 141.948 33.375 163.702 77.273 6.377 12.869 7.573 23.894 3.657 33.707-8.059 20.192-37 30.797-62.535 40.154-24.089 8.827-46.843 17.165-46.843 31.572 0 13.361 28.287 25.776 58.234 38.921 36.408 15.98 74.057 32.504 67.904 54.038-8.67 30.349-55.582 22.703-96.974 15.958-28.729-4.682-55.864-9.104-67.783-1.155-8.814 5.879-4.664 17.069.589 31.235 5.854 15.787 12.49 33.68 3.084 50.098-9.621 16.793-34.407 28.516-75.775 35.838-20.092 3.557-38.7 5.338-55.642 5.338zm-90.084-133.429c17.272 0 29.646 3.571 32.547 13.888 5.787 19.094-7.162 30.566-19.685 41.66-9.911 8.781-19.272 17.074-18.439 28.518.236 3.244 2.178 14.742 17.255 26.479 35.734 27.818 99.104 21.699 133.697 15.577 40.749-7.212 65.081-18.616 74.389-34.863 8.94-15.606 2.478-33.033-3.224-48.409-5.341-14.401-9.953-26.838.176-33.594 12.574-8.385 40.085-3.902 69.215.845 42.548 6.934 86.546 14.105 94.729-14.533 5.673-19.855-31.163-36.022-66.785-51.658-30.562-13.414-59.43-26.085-59.43-40.752 0-15.804 23.391-24.375 48.155-33.449 25.142-9.213 53.638-19.655 61.366-39.018 3.693-9.255 2.519-19.748-3.591-32.078-9.651-19.475-34.782-38.714-70.764-54.174-31.41-13.495-66.336-21.92-91.151-21.987-52.064-.175-143.948 17.459-223.428 42.799-58.041 18.505-160.946 57.675-198.026 112.1-19.706 28.923-23.15 56.055-10.235 80.643 11.37 21.647 32.815 36.42 48.804 45.002 18.351 9.849 36.391 15.208 44.049 15.25 18.049.093 42.613-4.295 68.61-8.947 25.75-4.607 51.974-9.299 71.766-9.299z"/><path d="m1974.876 1814.299c-14.252 49.857-134.379-5.75-164.352 14.252-17.368 11.582 12.029 42.144 7.396 70.27-42.449-22.424-70.341-60.276-70.341-103.195 0-68.848 71.752-124.655 160.272-124.655 9.148 0 18.12.6 26.845 1.752-32.948 18.614-86.004 25.763-86.004 48.893 0 30.62 137.084 54.526 126.184 92.683z" fill="#dbf301"/><path d="m1817.919 1899.821c-.161 0-.321-.039-.467-.116-44.379-23.444-70.874-62.352-70.874-104.079 0-69.286 72.346-125.655 161.272-125.655 9.054 0 18.13.593 26.976 1.761.426.056.769.379.851.801s-.116.849-.49 1.061c-11.508 6.501-25.314 11.562-38.666 16.456-24.083 8.827-46.829 17.164-46.829 31.567 0 13.365 28.292 25.783 58.246 38.93 36.405 15.978 74.049 32.5 67.899 54.028-8.674 30.346-55.586 22.703-96.975 15.959-28.73-4.681-55.868-9.102-67.784-1.151-8.813 5.877-4.665 17.063.586 31.226 4.402 11.87 9.391 25.324 7.241 38.376-.052.317-.254.59-.542.733-.139.069-.291.103-.444.103zm89.931-227.849c-87.823 0-159.272 55.471-159.272 123.655 0 40.58 25.597 78.486 68.555 101.642 1.503-12.11-3.188-24.757-7.343-35.965-5.339-14.397-9.949-26.83.179-33.585 12.571-8.389 40.085-3.906 69.216.841 42.549 6.933 86.544 14.101 94.73-14.535 5.67-19.848-31.161-36.014-66.78-51.647-30.569-13.417-59.442-26.089-59.442-40.761 0-15.8 23.384-24.371 48.141-33.445 12.239-4.486 24.861-9.112 35.663-14.838-7.784-.904-15.724-1.362-23.647-1.362zm67.026 142.327h.01z"/><path d="m943.356 803.838-309.915-181.099-471.625 192.541s-13.926 10.455-13.926 37.365c0 29.994 13.871 40.31 13.871 40.31l311.032 181.299z"/><path d="m472.794 1075.254c-.174 0-.348-.045-.504-.136l-311.032-181.299c-.032-.019-.063-.039-.093-.062-.583-.433-14.274-10.962-14.274-41.112 0-27.099 13.741-37.726 14.326-38.165.068-.051.143-.094.222-.126l471.625-192.541c.288-.118.614-.094.882.062l309.914 181.099c.308.18.497.51.495.867s-.192.686-.502.863l-470.562 270.416c-.153.089-.325.134-.497.134zm-310.471-183.129 310.474 180.973 468.564-269.268-307.998-179.979-471.036 192.301c-1.19.972-13.436 11.602-13.436 36.494-.001 28.295 12.645 38.852 13.432 39.479z"/><path d="m917.926 805.687-2.168-64.096-295.417-111.636-373.896 201.983-73.536-10.168s-13.049 2.475-15.311 26.853c-1.933 20.83 4.218 29.648 4.218 29.648l312.089 183.636z" fill="#fff"/><path d="m473.905 1062.907c-.176 0-.351-.046-.507-.138l-312.089-183.636c-.124-.073-.231-.172-.313-.29-.26-.372-6.338-9.359-4.394-30.313 2.305-24.842 15.557-27.636 16.12-27.743.107-.02.216-.023.323-.008l73.211 10.123 373.608-201.827c.255-.138.557-.158.829-.056l295.417 111.636c.377.143.632.498.646.902l2.169 64.096c.012.369-.18.715-.5.9l-444.021 256.22c-.154.09-.327.134-.499.134zm-311.374-185.375 311.379 183.218 442.996-255.629-2.125-62.831-294.367-111.238-373.494 201.766c-.188.101-.402.14-.612.111l-73.348-10.142c-1.353.369-12.334 4.034-14.366 25.929-1.727 18.608 3.143 27.506 3.937 28.816z"/><path d="m941.832 726.545-308.336-181.481-471.68 270.216 310.955 181.934z" fill="#dbf301"/><path d="m472.771 998.214c-.175 0-.349-.046-.505-.137l-310.955-181.934c-.308-.18-.497-.511-.495-.868s.193-.686.503-.863l471.68-270.216c.311-.178.695-.176 1.004.006l308.336 181.48c.307.181.494.51.493.866s-.192.684-.5.862l-469.061 270.67c-.155.09-.327.134-.5.134zm-308.959-182.925 308.962 180.768 467.072-269.521-306.357-180.315z"/><path d="m1731.859 1090.518-577.957 312.107v17.54l488.935 286.067 574.59-329.918v-17.541z"/><path d="m1642.837 1707.232c-.174 0-.349-.046-.505-.137l-488.935-286.067c-.307-.179-.495-.508-.495-.863v-17.54c0-.367.202-.705.525-.88l577.958-312.107c.299-.162.66-.16.958.005l485.568 268.255c.319.176.517.511.517.875v17.54c0 .358-.191.689-.502.867l-574.591 329.918c-.155.089-.326.134-.498.134zm-487.935-287.641 487.939 285.484 573.586-329.341v-16.371l-484.573-267.706-576.952 311.564z"/><path d="m1731.859 1072.978-577.957 329.647 488.935 286.066 574.59-329.918z"/><path d="m1642.837 1689.692c-.174 0-.349-.046-.505-.137l-488.935-286.067c-.309-.18-.497-.511-.495-.869s.194-.686.504-.863l577.958-329.647c.312-.177.693-.175 1.003.007l485.568 285.796c.307.181.495.511.493.867s-.193.684-.502.862l-574.591 329.918c-.155.088-.326.133-.498.133zm-486.936-287.056 486.94 284.9 572.596-328.773-483.586-284.629z"/><path d="m1642.838 1689.692c-.347 0-.683-.18-.868-.502-.275-.479-.11-1.09.369-1.365l574.591-329.918c.48-.275 1.09-.11 1.365.369s.11 1.09-.369 1.365l-574.591 329.918c-.158.09-.328.133-.497.133z" fill="#fff"/><path d="m2008.18 1104.183 129.855 207.871-13.916 10.72-408.991-240.253-84.297-163.222 17.87-9.748z"/><path d="m2124.118 1323.774c-.174 0-.35-.046-.506-.138l-408.991-240.253c-.163-.096-.295-.235-.382-.403l-84.297-163.223c-.249-.483-.067-1.077.41-1.337l17.871-9.747c.298-.162.657-.163.955-.001l359.479 194.632c.152.082.28.203.372.35l129.855 207.871c.272.436.169 1.008-.238 1.322l-13.917 10.72c-.179.137-.394.207-.611.207zm-408.234-241.969 408.159 239.765 12.664-9.755-129.235-206.879-358.768-194.247-16.536 9.019z"/><path d="m1996.25 1118.737 127.869 204.037-408.991-240.253-84.297-163.222z"/><path d="m2124.118 1323.774c-.173 0-.348-.045-.506-.138l-408.991-240.253c-.163-.096-.295-.236-.382-.403l-84.297-163.223c-.202-.39-.125-.867.19-1.174.314-.307.792-.373 1.178-.163l365.419 199.438c.15.082.277.201.368.347l127.869 204.037c.245.39.191.897-.13 1.228-.194.2-.454.304-.718.304zm-408.234-241.969 405.217 238.036-125.559-200.352-362.324-197.749z"/><g fill="#fff"><path d="m2124.119 1323.774c-.299 0-.596-.134-.792-.39-.337-.438-.256-1.065.182-1.402l13.917-10.72c.438-.337 1.065-.256 1.402.182s.256 1.065-.182 1.402l-13.917 10.72c-.182.14-.397.208-.61.208z"/><path d="m2124.118 1323.774c-.173 0-.348-.045-.506-.138l-147.288-86.521c-.477-.28-.636-.892-.356-1.369.28-.476.892-.636 1.369-.356l143.763 84.451-125.698-200.573c-.293-.468-.152-1.085.316-1.378.468-.294 1.086-.151 1.378.316l127.869 204.037c.245.39.191.897-.13 1.228-.193.199-.453.303-.717.303z"/><path d="m1692.515 1661.166c-.193 0-.388-.056-.56-.172-.458-.31-.577-.931-.268-1.389l346.224-511.406c.31-.457.931-.577 1.389-.267s.577.931.268 1.389l-346.224 511.406c-.193.286-.508.439-.829.439z"/></g><path d="m1643.275 1706.753-31.065 14.865-998.703-602.729 479.079-761.753 28.919-11.63c7.18-2.895 15.295-2.308 21.984 1.59l993.488 579.07c19.226 11.206 24.994 36.32 12.583 54.792l-469.795 694.358c-9.156 13.533-21.751 24.384-36.49 31.437z"/><path d="m1612.21 1722.618c-.179 0-.358-.048-.517-.144l-998.703-602.729c-.23-.139-.394-.364-.456-.625s-.017-.536.126-.764l479.079-761.753c.112-.178.278-.317.473-.395l28.919-11.63c7.521-3.033 15.853-2.43 22.86 1.654l993.488 579.07c9.54 5.56 16.155 14.549 18.626 25.311 2.472 10.762.441 21.736-5.716 30.902l-469.796 694.361c-9.248 13.667-22.003 24.656-36.887 31.779l-31.065 14.865c-.136.065-.283.098-.431.098zm-997.314-604.059 997.369 601.924 30.579-14.632.432.902-.432-.902c14.564-6.969 27.045-17.722 36.094-31.095l469.794-694.358c5.844-8.699 7.772-19.119 5.425-29.336-2.347-10.218-8.627-18.752-17.684-24.031l-993.488-579.07c-6.469-3.771-14.162-4.327-21.107-1.527l-28.619 11.509z"/><path d="m1582.463 1719.298-985.66-577.682c-12.256-7.183-15.939-23.2-8.051-35.015l496.242-743.315c4.832-7.238 14.463-9.465 21.981-5.082l999.185 582.391c12.267 7.15 15.992 23.147 8.145 34.98l-486.121 733.135c-10.015 15.104-30.086 19.752-45.721 10.588z" fill="#87c159"/><path d="m1599.693 1724.985c-6.048 0-12.166-1.56-17.735-4.824l-985.66-577.682c-6.167-3.615-10.446-9.442-12.048-16.409s-.298-14.078 3.671-20.024l496.242-743.315c5.115-7.662 15.357-10.03 23.317-5.391l999.184 582.391c6.173 3.598 10.465 9.412 12.086 16.371 1.62 6.959.338 14.071-3.61 20.026l-486.121 733.135c-6.738 10.158-17.907 15.722-29.326 15.722zm-16.724-6.549c15.17 8.89 34.665 4.376 44.381-10.279l486.121-733.135c3.641-5.492 4.824-12.05 3.329-18.467-1.494-6.417-5.452-11.778-11.145-15.096l-999.184-582.391c-7.048-4.108-16.117-2.011-20.646 4.773l-496.242 743.315c-3.66 5.483-4.862 12.041-3.385 18.465 1.477 6.425 5.423 11.799 11.11 15.132z"/><path d="m792.183 1137.819 710.157 415.978 405.508-606.9-710.157-415.978z" fill="#adc4cb"/><path d="m1502.339 1554.797c-.172 0-.346-.044-.505-.137l-710.157-415.978c-.238-.139-.407-.37-.469-.639s-.01-.551.143-.78l405.508-606.9c.293-.44.879-.575 1.337-.307l710.157 415.978c.238.139.407.37.469.639s.01.551-.143.78l-405.508 606.9c-.192.287-.509.444-.832.444zm-708.735-417.304 708.428 414.965 404.395-605.234-708.428-414.965z"/><path d="m812.905 950.791 112.052 65.987 262.541-396.472-111.444-65.629z" fill="#fff"/><path d="m924.957 1017.778c-.173 0-.348-.045-.507-.138l-112.052-65.987c-.237-.139-.406-.37-.467-.638-.062-.268-.01-.549.142-.777l263.149-396.114c.294-.443.882-.578 1.341-.308l111.444 65.629c.236.139.405.369.467.637.062.267.011.548-.14.777l-262.543 396.471c-.192.29-.51.448-.834.448zm-110.635-67.313 110.325 64.97 261.435-394.803-109.719-64.614z"/><path d="m1889.98 1261.276-77.902 117.274c-2.846 4.284-1.68 10.064 2.604 12.91l16.136 11.273 86.946-131.125-18.902-12.122c-2.948-1.96-6.925-1.158-8.882 1.79z" fill="#adc4cb"/><path d="m1830.817 1403.732c-.204 0-.403-.062-.573-.18l-16.136-11.273c-4.717-3.133-6.01-9.546-2.864-14.283l77.902-117.274c1.095-1.648 2.766-2.771 4.705-3.162 1.94-.391 3.916-.004 5.563 1.091l18.889 12.114c.225.145.383.374.438.636s.003.535-.145.759l-86.946 131.125c-.149.225-.382.38-.647.43-.061.011-.124.017-.186.017zm64.508-144.32c-.358 0-.719.036-1.079.108-1.416.286-2.635 1.105-3.434 2.308l-77.902 117.274c-2.536 3.818-1.493 8.987 2.324 11.523l15.315 10.699 85.818-129.425-18.047-11.574c-.907-.602-1.94-.913-2.995-.913zm-5.345 1.864h.01z"/><path d="m1273.288 1178.75c-45.639.006-78.932-49.101-98.154-77.447-5.042-7.435-10.592-18.671-17.018-31.681-12.212-24.724-27.411-55.493-47.37-76.836-23.018-24.614-47.315-31.237-74.28-20.247-22.503 9.172-33.564 30.159-30.348 57.58 2.908 24.792 17.075 51.386 38.869 72.964 17.386 17.214 47.65 39.209 93.091 46.24 1.364.211 2.299 1.488 2.088 2.853s-1.488 2.298-2.853 2.088c-46.765-7.235-77.932-29.894-95.844-47.628-22.584-22.36-37.279-50.037-40.316-75.934-3.498-29.822 8.686-52.709 33.427-62.793 28.705-11.7 55.561-4.479 79.819 21.462 20.463 21.882 35.843 53.019 48.201 78.037 6.345 12.845 11.825 23.939 16.673 31.089 10.894 16.064 27.355 40.339 47.631 56.703 23.141 18.677 45.98 23.236 69.824 13.939 12.642-4.929 20.95-12.548 25.399-23.293 13.403-32.366-11.527-89.133-35.635-144.031-32.466-73.926-66.036-150.369-17.743-183.589.152-.104.315-.192.486-.26 20.53-8.242 43.297-8.918 67.667-2.01 21.759 6.168 44.238 18.171 66.815 35.676 24.803 19.231 48.65 44.619 68.115 71.853 3.783-.739 7.708-1.288 11.777-1.645 33.244-2.917 72.917 7.291 108.845 28.008 36.709 21.167 63.607 50.243 73.795 79.773 6.115 17.723 6.016 38.1-.278 57.378-6.2 18.99-17.986 35.767-33.185 47.241-1.103.832-2.67.613-3.501-.489-.832-1.102-.613-2.67.489-3.502 14.392-10.864 25.559-26.775 31.445-44.802 5.958-18.249 6.066-37.496.305-54.195-9.801-28.406-35.886-56.498-71.566-77.072-35.059-20.216-73.662-30.187-105.91-27.358-3.104.272-6.121.66-9.05 1.163 10.854 15.687 20.209 31.897 27.429 47.83 10.348 22.834 15.659 43.754 15.361 60.497-.333 18.669-7.686 32.175-21.264 39.059-19.191 9.731-43.847 7.095-62.812-6.715-22.177-16.148-31.976-43.829-26.885-75.944 5.717-36.068 26.685-59.733 59.708-68.045-18.944-26.181-41.959-50.537-65.879-69.084-22.068-17.11-43.976-28.824-65.115-34.817-23.178-6.57-44.77-5.986-64.183 1.736-44.545 30.972-11.88 105.36 19.714 177.302 25.66 58.429 49.896 113.617 35.677 147.954-4.929 11.903-14.417 20.664-28.202 26.038-8.795 3.429-17.223 4.953-25.259 4.954zm196.367-249.698c-12.844 2.94-23.83 8.258-32.779 15.887-13.362 11.39-21.812 27.727-25.113 48.556-4.786 30.194 4.286 56.116 24.89 71.12 17.462 12.715 40.074 15.187 57.608 6.298 11.99-6.079 18.223-17.75 18.525-34.689.286-16.007-4.872-36.182-14.916-58.344-7.375-16.275-17.014-32.845-28.215-48.828z" fill="#fff"/><path d="m2153.438 944.663c-3.106-7.489-8.596-14.075-16.182-18.497l-993.488-579.07c-6.689-3.899-14.804-4.486-21.984-1.59l-28.919 11.63-.014.022c4.558-1.821 9.863-1.6 14.403 1.047l999.185 582.391c6.134 3.575 10.131 9.362 11.615 15.734z" fill="#fff"/><path d="m2118.054 957.329c-.17 0-.339-.043-.49-.128-.245-.138-.42-.372-.484-.645-1.494-6.417-5.452-11.779-11.145-15.097l-999.185-582.391c-4.132-2.408-9.062-2.766-13.529-.982-.402.161-.863.044-1.14-.289s-.308-.807-.076-1.174c.112-.177.292-.338.486-.416l28.919-11.63c7.521-3.033 15.853-2.43 22.86 1.654l993.487 579.07c7.534 4.391 13.274 10.953 16.602 18.978.106.257.101.547-.015.799-.116.253-.332.446-.596.533l-35.383 11.666c-.1.035-.205.052-.311.052zm-1017.323-602.279c2.443.245 4.834 1.012 7.027 2.291l999.184 582.391c5.857 3.414 10.021 8.823 11.816 15.312l33.328-10.989c-3.211-7.167-8.494-13.038-15.334-17.025l-993.487-579.07c-6.469-3.771-14.162-4.327-21.106-1.527z"/><path d="m1633.029 1451.055c0 54.608-45.632 97.281-101.054 95.345-54.487-1.904-97.987-46.348-97.987-99.298s43.5-95.666 97.987-95.406c55.422.265 101.054 44.752 101.054 99.359z" fill="#fff"/><path d="m1535.65 1547.465c-1.234 0-2.469-.022-3.71-.065-26.568-.928-51.465-11.868-70.104-30.804-18.603-18.9-28.848-43.579-28.848-69.493 0-25.571 10.013-49.619 28.194-67.714 18.721-18.631 43.875-28.837 70.797-28.692 56.271.269 102.05 45.29 102.05 100.359 0 26.174-10.352 50.585-29.147 68.736-18.561 17.923-43.026 27.673-69.232 27.673zm-4.175-194.77c-26.211 0-50.656 9.972-68.882 28.111-17.802 17.717-27.605 41.261-27.605 66.297 0 25.385 10.041 49.567 28.273 68.09 18.279 18.57 42.694 29.298 68.749 30.209 27.053.945 52.441-8.661 71.483-27.048 18.402-17.771 28.537-41.67 28.537-67.297 0-53.971-44.887-98.095-100.06-98.359-.165-.002-.331-.003-.495-.003z"/><path d="m1537.605 1320.844c-80.795 0-144.824 56.162-144.824 125.44 0 69.279 64.029 127.984 144.824 131.193 82.867 3.291 151.62-52.776 151.62-125.306s-68.753-131.327-151.62-131.327zm0 204.474c-48.198-1.525-86.746-36.385-86.746-77.881s38.548-74.824 86.746-74.435c48.928.395 89.139 35.287 89.139 77.928.001 42.642-40.211 75.937-89.139 74.388z" fill="#fff"/><path d="m1544.476 1578.613c-2.298 0-4.6-.046-6.911-.137-39.22-1.558-75.922-16.147-103.343-41.079-27.368-24.885-42.441-57.242-42.441-91.113 0-33.879 15.079-65.648 42.458-89.454 27.43-23.851 64.139-36.986 103.366-36.986 40.415 0 78.606 13.747 107.538 38.708 29.072 25.081 45.082 58.329 45.082 93.62 0 31.647-13.241 61.8-37.283 84.907-27.669 26.591-66.885 41.534-108.466 41.534zm-6.871-256.769c-38.745 0-74.988 12.961-102.054 36.495-26.936 23.421-41.77 54.654-41.77 87.945 0 33.3 14.84 65.132 41.787 89.633 27.074 24.617 63.326 39.022 102.077 40.561 43.591 1.731 85.104-13.155 113.912-40.842 23.646-22.726 36.668-52.367 36.668-83.465 0-34.7-15.764-67.41-44.388-92.105-28.569-24.648-66.297-38.222-106.232-38.222zm3.237 204.526c-1.087 0-2.176-.017-3.269-.052-23.514-.744-45.563-9.341-62.084-24.208-16.528-14.872-25.63-34.288-25.63-54.673 0-18.398 7.61-36.08 21.429-49.788 16.64-16.505 40.787-25.848 66.325-25.647 49.698.401 90.131 35.808 90.131 78.928 0 18.767-7.827 36.685-22.04 50.456-16.485 15.972-39.974 24.984-64.862 24.984zm-3.205-2.051c25.542.808 49.856-8.073 66.676-24.37 13.82-13.39 21.432-30.799 21.432-49.019 0-42.026-39.542-76.536-88.147-76.928-24.94-.2-48.637 8.935-64.9 25.067-13.438 13.329-20.838 30.507-20.838 48.368 0 19.81 8.867 38.699 24.968 53.187 16.17 14.551 37.766 22.966 60.809 23.695z"/><path d="m1087.891 653.329-55.616-32.752 43.779-65.9 56.005 32.981z" fill="#fff"/><path d="m1087.891 654.33c-.173 0-.348-.045-.507-.138l-55.616-32.753c-.237-.139-.406-.37-.467-.638-.062-.268-.01-.549.142-.777l43.779-65.9c.294-.443.883-.578 1.34-.308l56.005 32.981c.238.14.407.372.468.64.061.269.008.551-.146.779l-44.167 65.672c-.193.285-.509.442-.831.442zm-54.199-34.079 53.895 31.739 43.049-64.009-54.274-31.962z"/><path d="m1143.79 686.311-55.899-32.982 44.168-65.671 55.439 32.648z" fill="#fff"/><path d="m1143.789 687.311c-.173 0-.348-.045-.507-.139l-55.899-32.981c-.237-.14-.406-.372-.467-.64-.061-.269-.008-.55.146-.779l44.168-65.672c.295-.439.882-.572 1.337-.304l55.439 32.648c.236.139.405.37.467.637s.011.548-.141.777l-43.708 66.005c-.192.289-.509.448-.835.448zm-54.476-34.304 54.167 31.96 42.602-64.334-53.72-31.635z"/><path d="m1044.136 719.372-55.616-32.753 43.779-65.9 56.005 32.981z" fill="#fff"/><path d="m1044.135 720.372c-.173 0-.348-.045-.507-.138l-55.617-32.753c-.237-.139-.406-.37-.467-.638-.062-.268-.01-.549.142-.777l43.779-65.9c.294-.443.883-.578 1.34-.308l56.005 32.981c.237.14.406.372.468.64.061.269.009.551-.145.78l-44.167 65.672c-.192.285-.508.441-.831.441zm-54.198-34.079 53.896 31.739 43.049-64.009-54.274-31.962z"/><path d="m1100.035 752.353-55.899-32.981 44.168-65.672 55.439 32.648z" fill="#fff"/><path d="m1100.034 753.353c-.173 0-.348-.045-.507-.139l-55.899-32.981c-.237-.14-.406-.372-.467-.64-.061-.269-.008-.55.146-.779l44.167-65.672c.296-.439.882-.572 1.337-.304l55.439 32.648c.236.139.405.37.467.637s.011.548-.141.777l-43.708 66.005c-.191.29-.509.448-.834.448zm-54.476-34.303 54.167 31.96 42.602-64.334-53.719-31.635z"/><path d="m1000.468 785.542-55.616-32.753 43.779-65.9 56.005 32.981z" fill="#fff"/><path d="m1000.467 786.542c-.173 0-.348-.045-.507-.138l-55.617-32.753c-.237-.139-.406-.37-.467-.638-.062-.268-.01-.549.142-.777l43.779-65.9c.294-.443.883-.578 1.34-.308l56.005 32.981c.237.14.406.372.468.64.061.269.009.551-.145.78l-44.168 65.672c-.192.285-.507.441-.83.441zm-54.198-34.079 53.895 31.739 43.05-64.009-54.274-31.962z"/><path d="m1056.367 818.523-55.899-32.981 44.168-65.672 55.439 32.648z" fill="#fff"/><path d="m1056.366 819.523c-.173 0-.348-.045-.507-.139l-55.899-32.981c-.237-.14-.406-.372-.467-.64-.061-.269-.008-.55.146-.779l44.168-65.672c.295-.439.881-.572 1.337-.304l55.439 32.648c.237.139.405.37.467.637s.011.548-.141.777l-43.708 66.005c-.192.29-.51.448-.835.448zm-54.476-34.303 54.167 31.96 42.602-64.334-53.719-31.635z"/><path d="m956.713 851.584-55.617-32.752 43.779-65.9 56.005 32.981z" fill="#fff"/><path d="m956.712 852.585c-.173 0-.348-.045-.507-.138l-55.617-32.753c-.237-.139-.406-.37-.467-.638-.062-.268-.01-.549.142-.777l43.779-65.9c.294-.443.883-.578 1.34-.308l56.005 32.981c.237.14.406.372.468.64.061.269.009.551-.145.78l-44.167 65.672c-.193.284-.508.441-.831.441zm-54.199-34.079 53.896 31.739 43.049-64.009-54.274-31.962z"/><path d="m1012.612 884.566-55.899-32.982 44.167-65.671 55.44 32.648z" fill="#fff"/><path d="m1012.611 885.566c-.173 0-.348-.045-.507-.139l-55.899-32.981c-.237-.14-.406-.372-.467-.64-.061-.269-.008-.55.146-.779l44.167-65.672c.295-.439.881-.572 1.337-.304l55.439 32.648c.237.139.405.37.467.637s.011.548-.141.777l-43.708 66.005c-.191.289-.509.448-.834.448zm-54.476-34.304 54.167 31.96 42.602-64.334-53.719-31.635z"/><path d="m912.969 917.921-55.617-32.753 43.779-65.9 56.006 32.981z" fill="#fff"/><path d="m912.968 918.921c-.173 0-.348-.045-.507-.138l-55.617-32.753c-.237-.139-.406-.37-.467-.638-.062-.268-.01-.549.142-.777l43.779-65.9c.294-.443.883-.578 1.34-.308l56.005 32.981c.237.14.406.372.468.64.061.269.009.551-.145.78l-44.167 65.672c-.193.285-.508.441-.831.441zm-54.199-34.079 53.896 31.739 43.049-64.009-54.274-31.962z"/><path d="m968.868 950.902-55.899-32.981 44.168-65.672 55.439 32.648z" fill="#fff"/><path d="m968.867 951.902c-.173 0-.348-.045-.507-.139l-55.899-32.981c-.237-.14-.406-.372-.467-.64-.061-.269-.008-.55.146-.779l44.167-65.672c.295-.439.882-.572 1.337-.304l55.439 32.648c.237.139.405.37.467.637s.011.548-.141.777l-43.708 66.005c-.191.289-.509.448-.834.448zm-54.476-34.304 54.167 31.96 42.602-64.334-53.719-31.635z"/><path d="m869.214 983.963-55.617-32.753 43.779-65.9 56.005 32.981z" fill="#fff"/><path d="m869.213 984.963c-.173 0-.348-.045-.507-.138l-55.617-32.753c-.237-.139-.406-.37-.467-.638-.062-.268-.01-.549.142-.777l43.779-65.9c.294-.443.883-.578 1.34-.308l56.005 32.981c.237.14.406.372.468.64.061.269.009.551-.145.78l-44.168 65.672c-.192.285-.508.441-.83.441zm-54.199-34.079 53.896 31.739 43.05-64.009-54.274-31.962z"/><path d="m925.112 1016.944-55.898-32.981 44.167-65.672 55.439 32.648z" fill="#fff"/><path d="m925.112 1017.944c-.173 0-.348-.045-.507-.139l-55.899-32.981c-.237-.14-.406-.372-.467-.64-.061-.269-.008-.55.146-.779l44.168-65.672c.296-.439.882-.572 1.337-.304l55.439 32.648c.237.139.405.37.467.637s.011.548-.141.777l-43.708 66.005c-.193.29-.51.448-.835.448zm-54.477-34.303 54.167 31.96 42.602-64.334-53.719-31.635z"/><path d="m810.65 1378.713 465.876 277.589c8.667 5.08 19.642 3.863 26.985-2.992 11.111-10.371 9.099-28.517-4.014-36.202l-469.847-271.353-43.007-8.057c-4.668-.76-8.051 4.342-5.534 8.346z" fill="#dbf301"/><path d="m1287.965 1660.386c-4.118 0-8.251-1.057-11.945-3.222l-465.882-277.592c-.085-.051-.163-.114-.23-.188l-29.542-32.669c-.039-.043-.074-.089-.105-.138-1.376-2.19-1.344-4.889.085-7.044s3.903-3.237 6.456-2.821l43.031 8.062c.111.021.218.06.316.117l469.847 271.352c6.531 3.828 10.751 10.332 11.585 17.849.833 7.517-1.859 14.789-7.388 19.949-4.478 4.18-10.336 6.345-16.228 6.345zm-476.674-282.455 465.746 277.512c8.217 4.816 18.825 3.639 25.792-2.864 5.062-4.726 7.528-11.384 6.765-18.267s-4.628-12.839-10.603-16.341l-469.694-271.263-42.839-8.026c-1.744-.284-3.455.464-4.444 1.956-.974 1.469-1.011 3.302-.103 4.804z"/><path d="m1289.561 1660.42c-12.349 0-22.396-10.047-22.396-22.396s10.046-22.395 22.396-22.395 22.396 10.047 22.396 22.395-10.047 22.396-22.396 22.396zm0-42.791c-11.246 0-20.396 9.149-20.396 20.395s9.149 20.396 20.396 20.396 20.396-9.149 20.396-20.396-9.15-20.395-20.396-20.395z"/><path d="m810.651 1379.713c-.336 0-.664-.169-.853-.476-2.255-3.663-2.544-8.383-2.544-12.087 0-12.349 10.047-22.395 22.396-22.395.552 0 1 .448 1 1s-.448 1-1 1c-11.246 0-20.396 9.149-20.396 20.395 0 3.44.255 7.803 2.248 11.038.29.47.143 1.086-.327 1.376-.164.101-.345.149-.524.149z"/><ellipse cx="438.015" cy="720.912" fill="#fff" rx="112.719" ry="81.061"/><path d="m438.015 802.974c-62.705 0-113.719-36.813-113.719-82.061s51.014-82.061 113.719-82.061 113.718 36.813 113.718 82.061-51.013 82.061-113.718 82.061zm0-162.123c-61.602 0-111.719 35.915-111.719 80.061s50.117 80.061 111.719 80.061 111.718-35.915 111.718-80.061-50.116-80.061-111.718-80.061z"/><path d="m542.676 749.463c-5.553-24.611-27.557-49.565-60.367-68.464-39.643-22.834-84.911-31.429-115.326-21.897l-.598-1.908c30.923-9.692 76.818-1.027 116.923 22.073 33.294 19.177 55.644 44.602 61.32 69.757z"/><path d="m394.401 784.021-30.236-15.106c-1.497-.748-2.109-2.584-1.362-4.081.748-1.497 2.584-2.109 4.081-1.362l30.236 15.106c1.497.748 2.109 2.584 1.362 4.081-.748 1.497-2.584 2.11-4.081 1.362z"/><path d="m395.75 785.342c-.617 0-1.229-.143-1.796-.426l-30.236-15.106c-1.994-.996-2.805-3.429-1.809-5.422s3.428-2.805 5.422-1.809l30.236 15.106c.963.481 1.682 1.311 2.024 2.338.343 1.026.266 2.122-.215 3.085s-1.311 1.682-2.338 2.024c-.422.14-.856.21-1.288.21zm-30.221-21.19c-.75 0-1.473.414-1.83 1.129-.503 1.007-.093 2.236.914 2.739l30.236 15.106c.484.242 1.038.28 1.558.107s.939-.536 1.182-1.021c.242-.485.28-1.038.107-1.558s-.536-.939-1.021-1.181l-30.236-15.106c-.293-.145-.604-.215-.91-.215z"/><circle cx="344.168" cy="1096.346" r="17.417"/><path d="m344.168 1114.764c-10.155 0-18.417-8.262-18.417-18.417s8.262-18.417 18.417-18.417 18.417 8.262 18.417 18.417-8.262 18.417-18.417 18.417zm0-34.834c-9.052 0-16.417 7.365-16.417 16.417s7.365 16.417 16.417 16.417 16.417-7.365 16.417-16.417-7.365-16.417-16.417-16.417z"/><circle cx="355.698" cy="1108.096" fill="#adc4cb" r="25.613"/><path d="m355.698 1134.709c-14.675 0-26.613-11.939-26.613-26.613s11.939-26.613 26.613-26.613 26.613 11.939 26.613 26.613-11.939 26.613-26.613 26.613zm0-51.226c-13.572 0-24.613 11.042-24.613 24.613s11.042 24.613 24.613 24.613 24.613-11.041 24.613-24.613-11.041-24.613-24.613-24.613z"/><circle cx="361.386" cy="1114.373" fill="#dedde3" r="14.866"/><path d="m361.386 1130.239c-8.749 0-15.866-7.118-15.866-15.866s7.118-15.866 15.866-15.866c8.749 0 15.866 7.118 15.866 15.866s-7.118 15.866-15.866 15.866zm0-29.732c-7.646 0-13.866 6.22-13.866 13.866s6.22 13.866 13.866 13.866 13.866-6.22 13.866-13.866-6.22-13.866-13.866-13.866z"/><path d="m311.459 1166.289-12.147-21.04 75.479-43.578c5.81-3.354 13.239-1.364 16.593 4.446 3.354 5.81 1.364 13.239-4.446 16.593z" fill="#fff"/><path d="m311.46 1167.289c-.346 0-.682-.179-.867-.5l-12.147-21.04c-.133-.23-.169-.503-.1-.759s.236-.475.466-.607l75.479-43.578c6.278-3.625 14.335-1.466 17.959 4.812 1.756 3.041 2.222 6.584 1.313 9.976s-3.084 6.227-6.125 7.983l-75.479 43.578c-.158.092-.33.135-.499.135zm-10.782-21.674 11.147 19.307 74.614-43.078c2.579-1.489 4.423-3.893 5.194-6.769s.375-5.88-1.114-8.459-3.893-4.423-6.769-5.194c-2.876-.77-5.88-.375-8.459 1.114z"/><circle cx="304.062" cy="1156.71" fill="#dedde3" r="12.247"/><path d="m304.062 1169.957c-7.304 0-13.247-5.943-13.247-13.247s5.943-13.247 13.247-13.247 13.247 5.943 13.247 13.247-5.943 13.247-13.247 13.247zm0-24.494c-6.201 0-11.247 5.045-11.247 11.247 0 6.201 5.045 11.247 11.247 11.247s11.247-5.045 11.247-11.247c0-6.201-5.045-11.247-11.247-11.247z"/><circle cx="630.927" cy="744.567" r="17.417"/><path d="m630.957 762.992c-1.6 0-3.21-.21-4.797-.635-4.752-1.273-8.723-4.321-11.183-8.581-5.078-8.795-2.053-20.08 6.741-25.158s20.08-2.054 25.158 6.741c2.46 4.26 3.113 9.224 1.84 13.975s-4.321 8.723-8.581 11.183c-2.837 1.638-5.987 2.475-9.178 2.475zm-.057-34.839c-2.784 0-5.602.707-8.181 2.196-7.84 4.526-10.535 14.587-6.009 22.426 2.193 3.798 5.733 6.514 9.969 7.649s8.66.552 12.458-1.64c3.798-2.193 6.514-5.733 7.649-9.969s.553-8.66-1.64-12.458c-3.038-5.259-8.569-8.204-14.246-8.204z"/><circle cx="646.787" cy="741.922" fill="#adc4cb" r="25.613"/><path d="m646.83 768.546c-2.312 0-4.638-.304-6.931-.918-6.866-1.84-12.605-6.244-16.16-12.4s-4.499-13.328-2.659-20.195c1.84-6.866 6.243-12.605 12.4-16.16 12.709-7.337 29.017-2.967 36.354 9.741 7.337 12.709 2.967 29.017-9.741 36.354-4.1 2.369-8.651 3.578-13.263 3.578zm-.084-51.233c-4.174 0-8.399 1.06-12.265 3.293-5.694 3.287-9.766 8.595-11.468 14.945s-.828 12.983 2.459 18.677 8.595 9.766 14.945 11.468c6.351 1.702 12.983.828 18.677-2.459 11.753-6.786 15.795-21.869 9.009-33.622-4.553-7.887-12.845-12.302-21.357-12.302z"/><circle cx="654.852" cy="744.514" fill="#dedde3" r="14.866"/><path d="m654.878 760.377c-5.488 0-10.832-2.845-13.767-7.93-4.375-7.577-1.769-17.299 5.807-21.674 7.577-4.375 17.3-1.769 21.674 5.807 2.119 3.67 2.682 7.946 1.585 12.04s-3.722 7.515-7.393 9.634c-2.491 1.439-5.216 2.123-7.906 2.123zm-.05-29.727c-2.351 0-4.731.597-6.91 1.855-6.622 3.823-8.898 12.32-5.075 18.942 3.823 6.621 12.32 8.898 18.942 5.075 3.208-1.852 5.502-4.842 6.461-8.42.958-3.578.467-7.314-1.385-10.522-2.566-4.442-7.237-6.93-12.033-6.93z"/><path d="m637.571 814.438-21.04-12.147 43.578-75.479c3.354-5.81 10.783-7.801 16.593-4.446 5.81 3.354 7.801 10.783 4.446 16.593z" fill="#fff"/><path d="m637.572 815.438c-.174 0-.347-.045-.5-.134l-21.04-12.147c-.478-.276-.642-.888-.366-1.366l43.578-75.479c3.624-6.278 11.681-8.437 17.959-4.812 3.041 1.756 5.217 4.591 6.125 7.983s.443 6.935-1.313 9.976l-43.578 75.479c-.133.23-.351.397-.607.466-.085.022-.172.034-.258.034zm-19.674-13.514 19.308 11.147 43.078-74.613c1.489-2.579 1.884-5.583 1.114-8.459-.771-2.876-2.615-5.28-5.194-6.769-5.323-3.073-12.154-1.243-15.228 4.08z"/><circle cx="626.377" cy="809.841" fill="#dedde3" r="12.247"/><path d="m626.398 823.093c-1.151 0-2.309-.151-3.45-.457-3.418-.916-6.274-3.108-8.043-6.172s-2.239-6.634-1.323-10.052 3.108-6.274 6.172-8.043 6.634-2.239 10.052-1.323 6.274 3.108 8.043 6.172 2.239 6.634 1.323 10.052-3.108 6.274-6.172 8.044c-2.041 1.177-4.307 1.779-6.602 1.779zm-.04-24.504c-1.949 0-3.872.511-5.605 1.512-2.602 1.502-4.463 3.927-5.24 6.829-.778 2.902-.379 5.933 1.124 8.534s3.927 4.463 6.829 5.24c2.901.778 5.933.379 8.534-1.124 2.602-1.502 4.463-3.927 5.24-6.829s.378-5.933-1.124-8.534c-1.502-2.602-3.927-4.463-6.829-5.24-.968-.259-1.952-.388-2.929-.388z"/></svg>